<svg xmlns="http://www.w3.org/2000/svg" width="256" height="256" viewBox="0 0 256 256"><defs><radialGradient id="bg" cx="35%" cy="25%" r="90%"><stop stop-color="#f96854"/><stop offset=".6" stop-color="#f96854"/><stop offset="1" stop-color="#18263f"/></radialGradient></defs><path fill="url(#bg)" d="M0 0H256V256H0Z"/><circle cx="128" cy="128" r="115" fill="none" stroke="#fff" stroke-opacity=".3" stroke-width="2"/><g fill="#fff" opacity=".55"><circle cx="51" cy="70" r="2"/><circle cx="195" cy="58" r="3"/><circle cx="204" cy="184" r="2"/><circle cx="64" cy="197" r="3"/></g><path d="M128 181V103C128 52 65 58 72 101C75 118 91 120 97 109 M128 103C128 52 191 58 184 101C181 118 165 120 159 109" transform="translate(0 2)" fill="none" stroke="#0b1534" stroke-width="13" stroke-linecap="round" stroke-linejoin="round"/><path d="M128 181V103C128 52 65 58 72 101C75 118 91 120 97 109 M128 103C128 52 191 58 184 101C181 118 165 120 159 109" fill="none" stroke="#fff9ed" stroke-width="9" stroke-linecap="round" stroke-linejoin="round"/></svg>